<svg width="288" height="72.9" viewBox="0 0 288 72.9" class="css-1j8o68f"><defs id="SvgjsDefs1193"></defs><g id="SvgjsG1194" featurekey="symbolContainer" transform="matrix(0.9,0,0,0.9,0,0)" fill="#a12559"><rect xmlns="http://www.w3.org/2000/svg" width="75" height="81" rx="10" ry="10"></rect></g><g id="SvgjsG1195" featurekey="monogramFeature-0" transform="matrix(0.9619026361678638,0,0,0.9619026361678638,13.114792730805041,-1.6849085944865756)" fill="#ffffff"><path d="M32.682 45.32 c1.3061 4.0524 2.9588 8.0838 4.9755 12.03 c0.31078 0.66228 -3.3781 4.205 -4.1744 3.8993 c-4.0302 -2.5099 -7.9302 -5.396 -11.644 -8.6328 c-0.15826 -0.0801 -0.31969 -0.15381 -0.47414 -0.24152 c-0.59555 -0.34066 -1.1618 -0.74808 -1.6907 -1.2158 c-0.44619 2.5563 -0.83262 5.1176 -1.1161 7.6824 c-0.13793 1.0322 -5.2238 1.5749 -5.691 0.49066 c-1.3468 -4.9498 -2.3326 -9.9558 -3.1944 -14.969 c-0.6813 -4.0117 -1.2648 -8.0322 -1.786 -12.062 c-2.8232 -3.8198 -5.6744 -8.475 -4.688 -8.9388 c3.1461 -1.7479 6.6354 -3.3546 10.63 -4.2692 c1.9881 -0.45252 4.0906 -0.73284 6.2448 -0.70614 c1.0417 0.015235 2.2366 0.076878 3.3336 0.26883 c1.1135 0.16588 2.1908 0.44426 3.244 0.77472 c2.1012 0.67626 4.0842 1.6887 5.8962 3.024 c0.4875 0.33879 1.0081 0.77988 1.493 1.2114 c0.49828 0.42263 0.93174 0.9108 1.3754 1.3773 c0.42457 0.48369 0.82056 0.99024 1.193 1.5032 c0.34383 0.53326 0.71178 1.0493 0.98886 1.6106 c1.1695 2.208 1.8235 4.6156 1.7866 6.9822 c-0.020332 2.3573 -0.71628 4.6867 -2.093 6.5418 c-1.1847 1.5997 -2.8137 2.7813 -4.6085 3.6393 z M26.218 32.973 l-0.36164 -0.11004 c-0.63306 -0.2536 -1.3354 -0.43916 -2.0516 -0.52371 c-0.69342 2.7221 -1.3576 5.4532 -1.9779 8.1924 c0.41566 -0.14871 0.83514 -0.28981 1.2451 -0.45059 c0.7296 -0.28729 1.451 -0.58981 2.1596 -0.91392 l0.53068 -0.2434 c0.15761 -0.07752 0.39979 -0.18686 0.44748 -0.22688 c0.17924 -0.10553 0.35977 -0.21867 0.52758 -0.33182 c0.67056 -0.45188 1.2387 -0.97176 1.5025 -1.6499 c0.23836 -0.60696 0.17098 -1.2928 -0.052735 -1.8539 c-0.22184 -0.56818 -0.60126 -1.0271 -1.0062 -1.3576 c-0.20338 -0.16652 -0.42199 -0.29684 -0.63744 -0.40043 c-0.1125 -0.046406 -0.21422 -0.098496 -0.32543 -0.13025 z"></path></g><g id="SvgjsG1196" featurekey="nameFeature-0" transform="matrix(2.3532180847984017,0,0,2.3532180847984017,84.23485128874292,-33.680671006118686)" fill="#5f1854"><path d="M11.894 19.412 c1.2128 0 2.196 0.98328 2.196 2.196 s-0.98328 2.196 -2.196 2.196 c-3.2543 0 -5.902 2.6476 -5.902 5.902 l0 8.098 c0 1.2128 -0.98328 2.196 -2.196 2.196 s-2.196 -0.98328 -2.196 -2.196 l0 -16.196 c0 -1.2128 0.98328 -2.196 2.196 -2.196 c1.1071 0 2.0201 0.81996 2.1716 1.885 c1.677 -1.1856 3.721 -1.885 5.9264 -1.885 z M32.406 19.412 c1.2128 0 2.196 0.98328 2.196 2.196 l0 16.196 c0 1.2128 -0.98328 2.196 -2.196 2.196 c-1.1071 0 -2.0201 -0.81968 -2.1716 -1.885 c-1.677 1.1856 -3.721 1.885 -5.9264 1.885 c-5.6764 0 -10.294 -4.6176 -10.294 -10.294 s4.6176 -10.294 10.294 -10.294 c2.2054 0 4.2492 0.69944 5.9264 1.885 c0.15152 -1.0654 1.0645 -1.885 2.1716 -1.885 z M24.308 35.608 c3.2543 0 5.902 -2.6476 5.902 -5.902 s-2.6476 -5.902 -5.902 -5.902 s-5.902 2.6476 -5.902 5.902 s2.6476 5.902 5.902 5.902 z M56.097 19.412 c4.4008 0 7.9804 3.5802 7.9804 7.9804 l0 10.412 c0 1.2128 -0.98328 2.196 -2.196 2.196 s-2.196 -0.98328 -2.196 -2.196 l0 -10.412 c0 -1.9784 -1.6097 -3.5881 -3.5884 -3.5881 c-1.9784 0 -3.5881 1.6094 -3.5881 3.5881 l0 10.412 c0 1.2128 -0.98328 2.196 -2.196 2.196 s-2.196 -0.98328 -2.196 -2.196 l0 -10.412 c0 -1.9784 -1.6094 -3.5881 -3.5881 -3.5881 s-3.5884 1.6094 -3.5884 3.5881 l0 10.412 c0 1.2128 -0.98328 2.196 -2.196 2.196 s-2.196 -0.98328 -2.196 -2.196 l0 -16.196 c0 -1.2128 0.98328 -2.196 2.196 -2.196 c0.78592 0 1.4736 0.4142 1.8615 1.0349 c1.1595 -0.65744 2.4978 -1.0349 3.923 -1.0349 c2.2748 0 4.3288 0.9586 5.784 2.4912 c1.4549 -1.5326 3.509 -2.4912 5.784 -2.4912 z M84.394 19.412 c1.2128 0 2.196 0.98328 2.196 2.196 l0 16.196 c0 1.2128 -0.98328 2.196 -2.196 2.196 c-1.1071 0 -2.0201 -0.81968 -2.1716 -1.885 c-1.677 1.1856 -3.721 1.885 -5.9264 1.885 c-5.6764 0 -10.294 -4.6176 -10.294 -10.294 s4.6176 -10.294 10.294 -10.294 c2.2054 0 4.2492 0.69944 5.9264 1.885 c0.15152 -1.0654 1.0645 -1.885 2.1716 -1.885 z M76.296 35.608 c3.2543 0 5.902 -2.6476 5.902 -5.902 s-2.6476 -5.902 -5.902 -5.902 s-5.902 2.6476 -5.902 5.902 s2.6476 5.902 5.902 5.902 z"></path></g></svg>
